HIERARCHY
ROOT hip
{
	OFFSET 0.000000 0.000000 0.000000 
	CHANNELS 6 Xposition Yposition Zposition Xrotation Zrotation Yrotation
	JOINT abdomen
	{
		OFFSET 0.000000 3.402643 0.000000 
		CHANNELS 3 Xrotation Zrotation Yrotation
		JOINT chest
		{
			OFFSET 0.000000 8.438565 -0.680529 
			CHANNELS 3 Xrotation Zrotation Yrotation
			JOINT neck
			{
				OFFSET 0.000000 10.207942 -0.272212 
				CHANNELS 3 Xrotation Zrotation Yrotation
				JOINT head
				{
					OFFSET 0.000000 3.130431 0.000000 
					CHANNELS 3 Xrotation Zrotation Yrotation
					End Site
					{
						OFFSET 0.000000 3.130435 0.000000 
					}
				}
			}
			JOINT lCollar
			{
				OFFSET 3.470700 6.669187 -0.816635 
				CHANNELS 3 Yrotation Zrotation Xrotation
				JOINT lShldr
				{
					OFFSET 3.198488 0.000000 0.000000 
					CHANNELS 3 Zrotation Yrotation Xrotation
					JOINT lForeArm
					{
						OFFSET 10.139888 0.000000 0.000000 
						CHANNELS 3 Yrotation Zrotation Xrotation
						JOINT lHand
						{
							OFFSET 8.370511 0.000000 0.000000 
							CHANNELS 3 Zrotation Yrotation Xrotation
							End Site
							{
								OFFSET 4.083176 0.000000 0.000000 
							}
						}
					}
				}
			}
			JOINT rCollar
			{
				OFFSET -3.470700 6.669187 -0.816635 
				CHANNELS 3 Yrotation Zrotation Xrotation
				JOINT rShldr
				{
					OFFSET -3.198488 0.000000 0.000000 
					CHANNELS 3 Zrotation Yrotation Xrotation
					JOINT rForeArm
					{
						OFFSET -10.139888 0.000000 0.000000 
						CHANNELS 3 Yrotation Zrotation Xrotation
						JOINT rHand
						{
							OFFSET -8.370511 0.000000 0.000000 
							CHANNELS 3 Zrotation Yrotation Xrotation
							End Site
							{
								OFFSET -4.083176 0.000000 0.000000 
							}
						}
					}
				}
			}
		}
	}
	JOINT lThigh
	{
		OFFSET 5.308129 -1.633274 1.361059 
		CHANNELS 3 Xrotation Zrotation Yrotation
		JOINT lShin
		{
			OFFSET -2.041588 -20.007561 0.000000 
			CHANNELS 3 Xrotation Zrotation Yrotation
			JOINT lFoot
			{
				OFFSET 0.000000 -19.190928 -1.224953 
				CHANNELS 3 Xrotation Yrotation Zrotation
				End Site
				{
					OFFSET 0.000000 -2.449906 4.627600 
				}
			}
		}
	}
	JOINT rThigh
	{
		OFFSET -5.308129 -1.633274 1.361059 
		CHANNELS 3 Xrotation Zrotation Yrotation
		JOINT rShin
		{
			OFFSET 2.041588 -20.007561 0.000000 
			CHANNELS 3 Xrotation Zrotation Yrotation
			JOINT rFoot
			{
				OFFSET 0.000000 -19.190928 -1.224953 
				CHANNELS 3 Xrotation Yrotation Zrotation
				End Site
				{
					OFFSET 0.000000 -2.449906 4.627600 
				}
			}
		}
	}
}
MOTION
Frames: 12
Frame Time: 0.033333
0.096735 47.116375 0.096735 11.093991 -2.304143 -25.558666 46.292255 -1.616058 -14.448026 9.482421 0.001610 -0.019398 -8.544922 -0.001505 -0.009645 8.923892 11.552534 36.718853 2.000000 -2.000000 0.000000 -49.587624 -74.595444 -12.302909 -28.394102 -0.721373 8.412685 -59.534660 -45.394356 -128.392578 -2.000000 2.000000 0.000000 122.090630 52.817825 77.732483 81.292061 0.510111 8.893051 33.213066 -72.714157 -66.308853 -50.021229 29.037106 6.408274 30.282146 -1.202410 -2.458394 11.211342 -7.958879 -10.235807 -15.455073 -9.859900 -9.942027 39.864239 0.742211 2.961181 -26.287256 -19.576550 13.840156 
0.096735 47.051239 0.096735 10.566809 -2.375523 -26.380096 46.292255 -1.616058 -14.448026 9.482421 0.001610 -0.019398 -8.544922 -0.001505 -0.009645 8.923892 11.552534 36.718853 2.000000 -2.000000 0.000000 -51.559818 -70.219688 -10.580912 -36.179382 -0.667325 8.459957 -56.540535 -43.687855 -132.781357 -2.000000 2.000000 0.000000 121.691772 52.320869 77.917664 83.005058 0.511016 8.906124 34.861172 -73.628723 -67.681969 -49.408653 29.488140 6.517361 30.096224 -1.202395 -2.458560 11.552868 -7.507582 -10.502288 -16.206970 -10.103986 -9.820507 41.113293 0.673652 3.028218 -26.415749 -18.747414 13.785205 
0.096735 47.436913 0.096735 7.264603 -2.648825 -25.678846 46.292255 -1.616058 -14.448026 9.482421 0.001610 -0.019398 -8.544922 -0.001505 -0.009645 8.923892 11.552534 36.718853 2.000000 -2.000000 0.000000 -62.179714 -64.974983 0.836281 -44.370853 -0.610342 8.528520 -51.983418 -40.916393 -136.050293 -2.000000 2.000000 0.000000 110.064362 49.445370 69.514755 91.880302 0.520988 9.001556 37.528774 -75.279671 -71.452347 -41.812080 27.857395 9.813568 23.287851 -1.459762 -2.044698 14.714932 -8.475786 -9.921221 -13.455126 -10.847531 -9.582163 40.566753 0.703206 3.001874 -25.774406 -19.248140 13.268430 
0.096735 47.211510 0.096735 5.905907 -2.694867 -25.268579 46.292255 -1.616058 -14.448026 9.482421 0.001610 -0.019398 -8.544922 -0.001505 -0.009645 8.923892 11.552534 36.718853 2.000000 -2.000000 0.000000 -62.715378 -66.389343 1.488084 -42.744255 -0.621154 8.517731 -52.702709 -40.741764 -134.560379 -2.000000 2.000000 0.000000 108.277740 49.054771 68.032310 92.510956 0.521343 9.006114 33.268665 -74.507309 -67.672264 -40.529514 27.326729 10.445010 22.729179 -1.475409 -2.028062 15.339338 -8.922292 -9.683125 -13.465642 -11.375637 -9.330392 42.352398 0.605454 3.093507 -26.370209 -19.622572 13.052734 
0.096735 46.795837 0.096735 5.485481 -2.687114 -25.257692 46.292255 -1.616058 -14.448026 9.482421 0.001610 -0.019398 -8.544922 -0.001505 -0.009645 8.923892 11.552534 36.718853 2.000000 -2.000000 0.000000 -61.470219 -66.219429 0.195096 -45.904125 -0.606965 8.539715 -52.249332 -38.844807 -135.686707 -2.000000 2.000000 0.000000 107.354683 48.751904 67.415710 94.292984 0.526700 9.028612 29.559195 -74.581161 -64.265930 -42.070305 27.578136 9.816945 25.058857 -1.405955 -2.165931 14.777953 -8.978917 -9.755387 -14.881470 -11.775922 -9.051991 45.074490 0.459020 3.218855 -27.384230 -19.670507 12.968429 
0.096735 46.620567 0.096735 5.817598 -2.627286 -25.277058 46.292255 -1.616058 -14.448026 9.482421 0.001610 -0.019398 -8.544922 -0.001505 -0.009645 8.923892 11.552534 36.718853 2.000000 -2.000000 0.000000 -60.762489 -65.509674 -0.517475 -49.904160 -0.581641 8.580155 -51.604511 -36.701420 -136.955917 -2.000000 2.000000 0.000000 105.755005 48.055454 66.542534 96.662857 0.533650 9.047751 24.960108 -74.740730 -60.107147 -43.729134 27.869938 9.144309 26.918228 -1.329113 -2.275609 14.112764 -8.887671 -9.824207 -15.730110 -11.814137 -8.968596 46.108849 0.400408 3.255090 -27.851831 -19.668791 13.025830 
0.096735 46.685703 0.096735 6.824188 -2.564016 -25.335625 46.292255 -1.616058 -14.448026 9.482421 0.001610 -0.019398 -8.544922 -0.001505 -0.009645 8.923892 11.552534 36.718853 2.000000 -2.000000 0.000000 -58.539986 -68.045090 -3.008333 -43.564827 -0.618469 8.525755 -53.654556 -39.550941 -134.700821 -2.000000 2.000000 0.000000 110.367889 49.766266 69.452362 91.880302 0.520988 9.001556 28.325068 -74.042465 -62.821732 -45.230011 28.150732 8.495250 27.954971 -1.294854 -2.331357 13.457422 -8.705972 -9.918509 -15.887420 -11.493011 -9.152274 45.299355 0.449200 3.216160 -27.728369 -19.660271 13.204005 
0.096735 46.795837 0.096735 8.182336 -2.459385 -25.411568 46.292255 -1.616058 -14.448026 9.482421 0.001610 -0.019398 -8.544922 -0.001505 -0.009645 8.923892 11.552534 36.718853 2.000000 -2.000000 0.000000 -56.218082 -70.107513 -5.484999 -38.509377 -0.650785 8.480743 -55.471722 -41.681770 -132.729797 -2.000000 2.000000 0.000000 114.216766 50.939346 72.076859 88.153893 0.511053 8.971808 30.203533 -73.539124 -64.202904 -46.854450 28.466114 7.808458 28.814720 -1.265724 -2.398210 12.686131 -8.466243 -10.018562 -15.815078 -11.000973 -9.403952 43.709373 0.553535 3.140517 -27.329514 -19.621128 13.396903 
0.096735 47.101376 0.096735 10.312341 -2.338897 -25.512589 46.292255 -1.616058 -14.448026 9.482421 0.001610 -0.019398 -8.544922 -0.001505 -0.009645 8.923892 11.552534 36.718853 2.000000 -2.000000 0.000000 -51.853943 -73.317253 -9.994389 -31.264744 -0.705465 8.424162 -58.328854 -44.380619 -129.682449 -2.000000 2.000000 0.000000 119.833855 52.336929 76.085014 83.197662 0.504626 8.914509 32.367252 -72.933327 -65.722450 -49.163971 28.892073 6.759870 29.890779 -1.212178 -2.450428 11.634972 -8.093675 -10.169603 -15.551491 -10.161308 -9.811705 40.898460 0.683470 3.021101 -26.565748 -19.594233 13.738421 
0.096735 47.181511 0.096735 11.093991 -2.304143 -25.558666 46.292255 -1.616058 -14.448026 9.482421 0.001610 -0.019398 -8.544922 -0.001505 -0.009645 8.923892 11.552534 36.718853 2.000000 -2.000000 0.000000 -49.587624 -74.595444 -12.302909 -28.394102 -0.721373 8.412685 -59.534660 -45.394356 -128.392578 -2.000000 2.000000 0.000000 122.090630 52.817825 77.732483 81.292061 0.510111 8.893051 33.213066 -72.714157 -66.308853 -50.021229 29.037106 6.408274 30.282146 -1.202410 -2.458394 11.211344 -7.958881 -10.235806 -15.455073 -9.859898 -9.942027 39.864239 0.742210 2.961181 -26.287256 -19.576550 13.840157 
0.096735 47.181511 0.096735 11.093991 -2.304143 -25.558666 46.292255 -1.616058 -14.448026 9.482421 0.001610 -0.019398 -8.544922 -0.001505 -0.009645 8.923892 11.552534 36.718853 2.000000 -2.000000 0.000000 -49.587624 -74.595444 -12.302909 -28.394102 -0.721373 8.412685 -59.534660 -45.394356 -128.392578 -2.000000 2.000000 0.000000 122.090630 52.817825 77.732483 81.292061 0.510111 8.893051 33.213066 -72.714157 -66.308853 -50.021229 29.037106 6.408274 30.282146 -1.202410 -2.458394 11.211344 -7.958881 -10.235806 -15.455073 -9.859898 -9.942027 39.864239 0.742210 2.961181 -26.287256 -19.576550 13.840157 
0.096735 47.181511 0.096735 11.093991 -2.304143 -25.558666 46.292255 -1.616058 -14.448026 9.482421 0.001610 -0.019398 -8.544922 -0.001505 -0.009645 8.923892 11.552534 36.718853 2.000000 -2.000000 0.000000 -49.587624 -74.595444 -12.302909 -28.394102 -0.721373 8.412685 -59.534660 -45.394356 -128.392578 -2.000000 2.000000 0.000000 122.090630 52.817825 77.732483 81.292061 0.510111 8.893051 33.213066 -72.714157 -66.308853 -50.021229 29.037106 6.408274 30.282146 -1.202410 -2.458394 11.211344 -7.958881 -10.235806 -15.455073 -9.859898 -9.942027 39.864239 0.742210 2.961181 -26.287256 -19.576550 13.840157 
